# xmcd
#
# Track frame offsets:
# 150
# 21160
# 46913
# 67786
# 99080
# 118626
# 139477
# 161796
# 189406
# 210200
# 237568
# 251047
# 274287
# 300477
# 320176
#
# Disc length: 4773 seconds
#
# Revision: 1
# Processed by: cddbd v1.4PL0 Copyright (c) Steve Scherf et al.
# Submitted via: CedeCatalogueitor 2.5 http://usuarios.lycos.es/kakasboy
#
DISCID=d312a30f
DTITLE=Marvin Cease - The Best Of Blues # 12
DYEAR=1900
DGENRE=
TTITLE0=Don't Forget To Tell On You
TTITLE1=It's Too Late
TTITLE2=Teach Me
TTITLE3=Don't Come Around
TTITLE4=Dreaming
TTITLE5=Friday
TTITLE6=Heaven
TTITLE7=I Wanna Love You
TTITLE8=It's A Good Feeling
TTITLE9=Marvin Sease Please Take Me
TTITLE10=Never Let You Go
TTITLE11=She Don't Love You
TTITLE12=We're Still Together
TTITLE13=She's My Baby's Momma
TTITLE14=Candy Licker
EXTD=
EXTT0=
EXTT1=
EXTT2=
EXTT3=
EXTT4=
EXTT5=
EXTT6=
EXTT7=
EXTT8=
EXTT9=
EXTT10=
EXTT11=
EXTT12=
EXTT13=
EXTT14=
PLAYORDER=
